Coordinates
version=1
nRows=6
nColumns=36
inDegrees=yes

Units are S.I. units (second, meters, Newtons, ...)
If the header above contains a line with 'inDegrees', this indicates whether rotational values are in degrees (yes) or radians (no).

endheader
time	pelvis_tilt	pelvis_list	pelvis_rotation	pelvis_tx	pelvis_ty	pelvis_tz	hip_flexion_r	hip_adduction_r	hip_rotation_r	knee_angle_r	knee_angle_r_beta	ankle_angle_r	subtalar_angle_r	mtp_angle_r	hip_flexion_l	hip_adduction_l	hip_rotation_l	knee_angle_l	knee_angle_l_beta	ankle_angle_l	subtalar_angle_l	mtp_angle_l	lumbar_extension	lumbar_bending	lumbar_rotation	arm_flex_r	arm_add_r	arm_rot_r	elbow_flex_r	pro_sup_r	arm_flex_l	arm_add_l	arm_rot_l	elbow_flex_l	pro_sup_l
      0.74000000	     -9.08605489	      2.20446514	      0.20902415	     -0.72866060	      1.28349570	     -0.56738987	     12.38130030	     -5.17708798	    -12.15327517	     47.33175490	      0.82609496	     -5.57703200	    -13.40287378	     -5.43621812	     43.98940436	     -6.03516690	     -4.97194331	     55.45723899	      0.96791141	    -18.39090080	    -16.26197510	     -5.43621812	    -19.24575647	     -2.05227653	     -4.20472042	     46.28895680	    -15.11070182	     -0.27334411	    108.17140937	    100.97544462	      2.80075179	    -20.07383885	      2.41127341	     84.27101179	    107.17392214
      0.75000000	     -8.66415634	      2.36404454	     -0.32231361	     -0.71916992	      1.28914084	     -0.56724481	     14.04153647	     -6.01765862	    -12.36632058	     50.25941392	      0.87719225	     -4.04339805	    -15.68695079	     -5.46837253	     43.37226553	     -6.38981760	     -5.33250397	     52.90180870	      0.92331074	    -18.78895933	    -15.28782537	     -5.46837253	    -20.72772466	     -2.45460740	     -4.28835060	     45.78637559	    -15.28782917	      0.48345380	    108.30882214	    101.12080084	      2.76181578	    -19.82247850	      2.59586440	     84.11655202	    107.60697649
      0.76000000	     -8.39986472	      2.38604712	     -0.91620434	     -0.71030925	      1.29345420	     -0.56712763	     16.06023322	     -6.61619987	    -12.18527435	     52.91919487	      0.92361419	     -3.22447706	    -16.80762988	     -5.49426125	     43.01958938	     -6.89929059	     -5.66443425	     50.50073616	      0.88140412	    -19.32039715	    -14.51182753	     -5.49426125	    -22.17179106	     -2.71469310	     -4.24940064	     45.37899707	    -15.77219930	      1.32531098	    108.33506224	    101.25012575	      2.91904803	    -19.57582943	      2.95954454	     84.08348559	    107.97730544
      0.77000000	     -8.48243175	      2.28542147	     -1.45011855	     -0.70210800	      1.29599626	     -0.56723635	     18.58059770	     -7.05825287	    -11.87112270	     55.34073844	      0.96587810	     -2.22843097	    -16.19626525	     -5.55149321	     43.18656760	     -7.46717497	     -5.83133436	     48.28610195	      0.84275146	    -20.09984220	    -13.98509673	     -5.55149321	    -23.30228702	     -2.89752750	     -4.09367287	     44.86872796	    -16.43560750	      1.87279030	    108.21182276	    101.50174786	      3.32875658	    -19.35686117	      3.52524140	     84.09731620	    108.74095640
      0.78000000	     -8.67117817	      1.92846393	     -1.89593209	     -0.69412098	      1.29718264	     -0.56751467	     21.14913735	     -7.15771690	    -11.66613499	     57.20959005	      0.99849571	     -1.73970283	    -15.63735266	     -5.56705653	     43.56835154	     -8.26762852	     -5.85419123	     46.18980023	      0.80616409	    -20.69463459	    -13.25768693	     -5.56705653	    -24.36600755	     -2.72916194	     -3.96103077	     44.62329779	    -17.36823759	      2.66162927	    107.91882560	    101.58633845	      3.62307989	    -18.98292042	      3.83385545	     84.45484730	    108.98882371
      0.79000000	     -9.03699836	      1.94042212	     -2.50679826	     -0.68596168	      1.29689580	     -0.56744616	     24.07535727	     -7.70373235	    -11.31110571	     59.09263696	      1.03136108	      1.21520700	    -11.60254595	     -5.64850011	     44.00969425	     -8.98177810	     -6.50923994	     44.04731795	      0.76877072	    -21.82836450	    -12.56544525	     -5.64850011	    -25.08356231	     -3.09977017	     -3.77121413	     44.03197077	    -18.29097181	      3.30200233	    107.50264233	    101.94780380	      3.97824959	    -18.93340500	      4.30497075	     84.66169513	    110.01164021
